<?xml version="1.0" encoding="utf-8"?>
<!-- Generator: Adobe Illustrator 18.0.0, SVG Export Plug-In . SVG Version: 6.00 Build 0)  -->
<!DOCTYPE svg PUBLIC "-//W3C//DTD SVG 1.1//EN" "http://www.w3.org/Graphics/SVG/1.1/DTD/svg11.dtd">
<svg version="1.1" id="Layer_1" xmlns="http://www.w3.org/2000/svg" xmlns:xlink="http://www.w3.org/1999/xlink" x="0px" y="0px"
	 viewBox="0 0 64 64" enable-background="new 0 0 64 64" xml:space="preserve">
<g>
	<g>
		<g>
			<g>
				<g>
					<polygon points="47,0 47,10 56,10 					"/>
				</g>
			</g>
		</g>
		<g>
			<g>
				<g>
					<path d="M24.1,47c-0.5-0.6-1.2-0.9-2.2-0.9h-1.3v7.6h1.3c0.6,0,1.1-0.1,1.5-0.3c0.4-0.2,0.7-0.5,0.9-0.8
						c0.2-0.3,0.4-0.8,0.5-1.2c0.1-0.5,0.1-0.9,0.1-1.5c0-0.6-0.1-1.2-0.2-1.7C24.6,47.8,24.4,47.4,24.1,47z"/>
				</g>
			</g>
			<g>
				<g>
					<path d="M33,46c-0.9,0-1.5,0.3-1.9,1c-0.4,0.7-0.6,1.7-0.6,3c0,1.3,0.2,2.3,0.6,3c0.4,0.6,1,1,1.9,1c0.9,0,1.5-0.3,1.9-1
						c0.4-0.7,0.6-1.7,0.6-3c0-1.3-0.2-2.3-0.6-3C34.5,46.3,33.9,46,33,46z"/>
				</g>
			</g>
			<g>
				<g>
					<path d="M43,14V0H10C8.9,0,8,0.9,8,2.1v59.9c0,1.1,0.9,2.1,2,2.1h43.7c1.1,0,2.3-0.9,2.3-2.1V14H43z M14,28h25v4H14V28z
						 M27.1,52.4c-0.2,0.7-0.6,1.4-1.1,1.9c-0.9,1-2.3,1.6-4,1.6h-3.9V43.9H22c0.9,0,1.8,0.1,2.4,0.4c0.7,0.3,1.3,0.7,1.7,1.2
						s0.8,1.1,1,1.9c0.2,0.7,0.3,1.5,0.3,2.5C27.4,50.9,27.3,51.7,27.1,52.4z M36.7,54.4C35.9,55.5,34.6,56,33,56
						c-0.9,0-1.7-0.2-2.3-0.5c-0.6-0.3-1.2-0.8-1.6-1.3c-0.4-0.6-0.7-1.2-0.9-2S28,50.7,28,49.9c0-0.8,0.1-1.6,0.3-2.3
						s0.5-1.4,0.9-2c0.4-0.6,0.9-1,1.6-1.3c0.6-0.3,1.4-0.5,2.3-0.5s1.7,0.2,2.3,0.5c0.6,0.3,1.2,0.8,1.5,1.3c0.4,0.6,0.7,1.2,0.9,2
						s0.3,1.5,0.3,2.3C38,51.8,37.6,53.3,36.7,54.4z M47.2,54.2c-0.3,0.4-0.6,0.7-1,1c-0.7,0.5-1.7,0.8-2.8,0.8
						c-0.9,0-1.7-0.2-2.3-0.5c-0.6-0.3-1.1-0.8-1.5-1.4s-0.6-1.2-0.8-2c-0.2-0.7-0.2-1.5-0.2-2.3c0-0.8,0.1-1.5,0.2-2.3
						c0.2-0.7,0.4-1.4,0.8-2s0.9-1,1.5-1.4c0.6-0.3,1.4-0.5,2.3-0.5c1,0,1.8,0.2,2.6,0.7c0.4,0.2,0.7,0.5,1,1c0.3,0.4,0.5,1,0.7,1.7
						l-2.3,0.6c-0.2-0.5-0.4-0.9-0.7-1.2c-0.3-0.3-0.7-0.5-1.3-0.5c-0.3,0-0.6,0.1-0.8,0.2c-0.2,0.1-0.4,0.3-0.6,0.5
						c-0.2,0.2-0.3,0.5-0.4,0.8s-0.2,0.6-0.2,0.9c-0.1,0.3-0.1,0.6-0.1,0.9c0,0.3,0,0.6,0,0.8c0,1.3,0.2,2.2,0.6,2.9
						c0.3,0.6,0.9,1,1.7,1c0.3,0,0.6,0,0.8-0.1c0.2-0.1,0.4-0.2,0.6-0.4c0.2-0.2,0.3-0.3,0.4-0.6c0.1-0.2,0.2-0.4,0.4-0.7l2.4,0.6
						C47.8,53.3,47.5,53.8,47.2,54.2z M50,24H14v-4h36V24z"/>
				</g>
			</g>
		</g>
	</g>
</g>
</svg>
