<?xml version="1.0" encoding="utf-8"?>
<!-- Generator: Adobe Illustrator 18.1.1, SVG Export Plug-In . SVG Version: 6.00 Build 0)  -->
<!DOCTYPE svg PUBLIC "-//W3C//DTD SVG 1.1//EN" "http://www.w3.org/Graphics/SVG/1.1/DTD/svg11.dtd">
<svg version="1.1" id="Layer_1" xmlns="http://www.w3.org/2000/svg" xmlns:xlink="http://www.w3.org/1999/xlink" x="0px" y="0px"
	 viewBox="0 0 99.4 88" style="enable-background:new 0 0 99.4 88;" xml:space="preserve">
<style type="text/css">
	.st0{fill:#909192;}
	.st1{fill:#B4B5B6;}
</style>
<g>
	<path class="st0" d="M94.7,11.8c0-2.3-1.6-3.8-3.8-3.8H45.7V3.5c0-2.3-2-3.5-4.2-3.5H8.7c-2.3,0-4,1.2-4,3.5v8.3V13h90V11.8z"/>
</g>
<path class="st1" d="M94.7,13c2.8,0,4.9,2.2,4.7,5L95,83c-0.2,2.7-2.6,5-5.3,5h-80c-2.7,0-5.1-2.2-5.3-5L0,18c-0.2-2.7,1.9-5,4.7-5
	H94.7z"/>
</svg>
